<?xml version="1.0" encoding="UTF-8" standalone="no"?>
<!-- Created with Inkscape (http://www.inkscape.org/) -->

<svg
   xmlns:dc="http://purl.org/dc/elements/1.1/"
   xmlns:cc="http://creativecommons.org/ns#"
   xmlns:rdf="http://www.w3.org/1999/02/22-rdf-syntax-ns#"
   xmlns:svg="http://www.w3.org/2000/svg"
   xmlns="http://www.w3.org/2000/svg"
   xmlns:sodipodi="http://sodipodi.sourceforge.net/DTD/sodipodi-0.dtd"
   xmlns:inkscape="http://www.inkscape.org/namespaces/inkscape"
   version="1.1"
   id="svg4574"
   width="200"
   height="100"
   viewBox="0 0 200 100"
   sodipodi:docname="main-logo-1.svg"
   inkscape:version="0.92.3 (2405546, 2018-03-11)">
  <metadata
     id="metadata4580">
    <rdf:RDF>
      <cc:Work
         rdf:about="">
        <dc:format>image/svg+xml</dc:format>
        <dc:type
           rdf:resource="http://purl.org/dc/dcmitype/StillImage" />
        <dc:title></dc:title>
      </cc:Work>
    </rdf:RDF>
  </metadata>
  <defs
     id="defs4578" />
  <sodipodi:namedview
     pagecolor="#ffffff"
     bordercolor="#666666"
     borderopacity="1"
     objecttolerance="10"
     gridtolerance="10"
     guidetolerance="10"
     inkscape:pageopacity="0"
     inkscape:pageshadow="2"
     inkscape:window-width="1366"
     inkscape:window-height="705"
     id="namedview4576"
     showgrid="false"
     inkscape:zoom="8"
     inkscape:cx="183.33418"
     inkscape:cy="40.168936"
     inkscape:window-x="-8"
     inkscape:window-y="-8"
     inkscape:window-maximized="1"
     inkscape:current-layer="svg4574" />
  <path
     style="fill:#333333;stroke-width:1.33333337"
     d="m 84.534248,91.012661 c 1.02973,-0.01069 -17.36959,0.301019 -16.2758,0.291433 2.71119,-0.02376 24.20155,-0.769856 27.99327,-0.792847 17.108792,-0.103742 47.297422,0.08613 61.893242,0.209206 2.28937,0.01931 -16.78609,-0.07131 -14.6386,-0.05142 1.74633,0.01617 22.53384,-0.100929 24.1605,-0.08493 1.78144,0.01753 6.07,0.168112 7.67877,0.184807 19.98333,0.20738 -13.71152,0.754163 -53.67818,0.754163 -32.367322,0 -63.381922,-0.332041 -58.215212,-0.517786 0.52028,-0.0187 0.2712,-0.306492 5.54794,-0.386624 7.02619,-0.106697 26.18592,-0.07939 24.01796,0.01696 z M 113.71939,77.226982 c -2.48282,-2.664986 -2.71861,-4.635014 -2.71861,-22.713578 0,-15.977024 0.41537,-20.429434 2.15335,-23.081918 2.69208,-4.108644 7.4953,-4.267632 11.12804,-0.368341 2.48744,2.669951 2.71861,4.632668 2.71861,23.081919 0,18.44925 -0.23117,20.411968 -2.71861,23.081918 -1.49523,1.604944 -3.87186,2.918082 -5.28139,2.918082 -1.40953,0 -3.78616,-1.313138 -5.28139,-2.918082 z m 9.23448,-2.327597 c 0.75913,-1.418456 1.38024,-10.7579 1.38024,-20.754321 0,-9.996422 -0.62111,-19.335866 -1.38024,-20.754322 -1.55558,-2.906616 -5.28394,-3.381494 -7.68642,-0.979012 -2.23668,2.236678 -2.23668,41.22999 0,43.466667 2.40248,2.402483 6.13084,1.927604 7.68642,-0.979012 z m 56.04607,2.608837 c -2.30585,-1.686077 -3.33249,-2.844237 -3.33249,-16.696492 0,-14.007285 0.26429,-15.742194 2.66666,-17.504662 1.46667,-1.076003 3.75338,-1.67421 5.08156,-1.32935 3.04719,0.79119 4.62126,-1.380877 3.2271,-6.499321 -1.38776,-5.094917 -8.9784,-6.393538 -9.66512,-1.558242 -0.61862,4.355772 -1.13959,4.162671 -1.97687,-0.297214 -0.74432,-3.964728 0.17584,-3.481457 2.88848,-4.162286 9.43359,-2.36768 11.77819,1.410895 11.77819,26.680893 0,11.073436 -0.68693,16.496477 -0.0821,19.068723 0.34969,1.487118 1.66366,1.799488 2.41541,2.273471 1.92215,1.211928 2.55919,1.24695 -1.79209,0.688605 -2.41244,-0.309559 -3.10683,-1.982346 -3.4845,-1.371278 -0.50403,0.815532 -3.45188,2.270926 -4.58269,2.152975 -1.17235,-0.122284 -1.66134,-0.363461 -3.14156,-1.445822 z m 6.70051,-3.449958 c 1.10971,-2.918753 1.8026,-9.916937 1.57355,-16.234231 -0.19686,-5.429553 -0.22414,-10.914377 -1.26473,-12.315705 -1.53738,-2.070357 -3.33476,-1.73481 -5.26373,-0.554842 -2.02841,1.2408 -2.47203,3.645288 -2.79293,15.138668 -0.38479,13.780695 0.56456,17.386243 4.57777,17.386243 1.02835,0 2.45488,-1.53906 3.17007,-3.420133 z M 51.334118,77.371598 c 0.4959,-0.288832 1.84475,-0.30984 2.18862,-1.137425 1.13038,-2.720484 0.52442,-10.507447 0.14471,-34.341707 -0.26145,-16.410916 0.87922,-28.13581 -0.28473,-32.7990831 -1.17921,-4.724395 -4.66828,-2.284164 -5.73281,-3.092258 -2.00111,-1.519054 2.9171,-1.77729 12.35088,-1.813657 l 11,-0.0424 V 15.478401 c 0,6.666667 -0.54902,11.333333 -1.33334,11.333333 -0.75817,0 -0.21685,-3.538949 -0.21685,-8.694505 0,-2.946499 -0.30927,-5.426161 -0.61589,-7.189977 -0.69192,-3.9802401 -3.24832,-5.4488511 -6.50059,-5.4488511 -5.23544,0 -6,2.412623 -6,18.9333331 0,15.62018 0.0225,15.733334 3.12958,15.733334 1.0109,0 2.71919,-0.13063 3.536,-0.698348 0.74095,-0.514991 0.61648,-1.422611 1.04043,-2.301652 1.2285,-2.547266 1.44684,-1.893315 1.44684,4.333333 0,6.226648 -0.21834,6.880599 -1.44684,4.333333 -0.37939,-0.786645 0.0147,-2.005399 -0.6248,-2.504631 -0.86296,-0.673625 -2.84434,-0.495369 -3.95163,-0.495369 -3.1174,0 -3.12958,0.06502 -3.12958,16.709632 0,16.08233 -0.63169,16.754902 3,17.915486 2.4592,0.785888 1.65656,1.214713 -3.66667,1.249822 -6.0826,0.03399 -6.1366,-0.264766 -4.33333,-1.315076 z m 31.28644,0.186081 c 0.68762,-0.4005 3.87698,0.05689 4.35278,-1.703428 0.99531,-3.682381 0.0274,-12.928026 0.0274,-33.961785 0,-30.904017 1.41315,-33.7148561 -1.03077,-34.8474491 -1.55147,-0.718998 -2.37694,-1.709703 -2.37694,-1.709703 0.51626,-0.439663 0.92038,-1.052566 2.74104,-0.887104 l 4,0.363521 0.23746,35.3333331 -0.1347,35.519414 3.46803,1.46093 c 2.85256,1.346111 2.35872,1.644912 -4.23746,1.626122 -5.62526,-0.01602 -8.83674,-0.151356 -7.04689,-1.193851 z m 62.046892,-0.186081 c 1.92846,-0.419401 2.38493,-0.948224 2.96479,-2.012576 1.34607,-2.470751 0.97941,-7.827333 0.97941,-21.400039 0,-9.393546 0.40563,-15.783878 -0.83095,-19.477271 -1.22318,-3.65335 -5.24532,-3.101376 -6.15443,-3.610137 -1.00937,-0.564868 -1.28344,-1.332838 0.44692,-1.302996 0.9653,0.01665 3.26199,0.775683 5.44008,0.952339 1.00935,0.08186 3.47821,-1.812385 4.35335,-1.899329 0.31339,-0.03113 -0.34465,0.01203 0.26344,-0.07154 0.69946,-0.09612 0.95965,-0.05424 1.30202,-0.04293 3.39708,0.112208 5.91676,2.226449 7.43701,1.712906 1.4526,-0.490692 0.79837,1.88053 0.79837,4.080552 0,5.395337 -1.56636,5.879493 -2.16712,0.658411 -0.3348,-2.909716 -1.85435,-3.480586 -4.49955,-3.480586 h -3.33333 l -0.66667,21.802207 c -0.36667,11.991213 -0.36667,22.271804 0,22.845757 0.36667,0.573952 1.86667,1.343359 3.33333,1.709791 1.46667,0.366433 -0.63333,0.717597 -4.66666,0.780365 -5.58112,0.08685 -6.77582,-0.210603 -5,-1.244919 z M 15.904548,57.421608 c -1.37873,-3.652659 -1.51325,-3.696515 -5.31236,-1.731919 -4.1567102,2.149517 -5.8021602,1.409397 -6.3983202,-2.877959 -0.70966,-5.103604 1.42848,-8.664001 5.2301,-8.70907 3.0758402,-0.03647 4.2128102,0.102259 2.4052602,-1.294506 -1.15608,-0.893345 -3.3678002,-3.298614 -3.7777902,-4.890182 -0.57524,-2.233076 -0.0404,-3.07072 2.3427602,-3.668846 3.7977,-0.953164 9.9326,1.220835 9.96034,3.529603 0.0141,1.176993 0.41788,1.084636 1.31291,-0.300332 1.14889,-1.777777 1.30416,-1.777777 1.39743,0 0.0608,1.159952 0.98358,1.670331 1.68295,-0.0696 1.4333,-3.565863 5.41483,-4.23666 8.56065,-1.090842 2.46756,2.467561 3.58423,3.324498 1.54995,4.581749 -0.81162,0.501612 -0.94776,1.287022 -0.30253,1.745356 2.60523,1.850596 4.39617,7.783529 3.65129,9.724644 -1.36805,3.565096 -6.34308,2.830325 -10.62362,-1.730791 -3.34874,-3.568241 -3.47748,-3.945663 -0.88856,-2.605007 4.66981,2.418238 7.75758,-0.892891 4.33781,-5.087999 -3.55464,-4.36056 -7.98926,-3.730663 -8.1373,1.225321 -0.0614,2.05518 -0.41178,2.318238 -0.84065,1.151852 -0.60572,-1.647345 -0.82976,-3.975103 -2.06825,-4.951941 -2.63064,-2.074885 -6.57082,-1.322102 -5.50634,2.03176 0.56138,1.768756 0.12957,2.185643 -2.53799,3.458962 l -1.45285,2.68977 v 0 l 0.72821,2.788997 v 0 c 1.83333,0.510505 5.95021,-1.44178 6.64688,-2.064092 2.09687,-1.873072 2.25945,-1.282543 1.57068,1.351316 -0.33938,1.297804 -0.49167,3.435782 0.22726,4.015045 1.10677,0.891761 3.51355,-0.381046 4.52635,-2.190821 1.09692,-1.960099 1.4735,-1.77712 2.93242,1.424878 2.03189,4.45951 0.76517,6.061826 -5.35562,6.774486 -3.86318,0.449801 -4.63209,0.02608 -5.86106,-3.229836 z m 5.7629,-25.276544 c 0,-1.718519 0.67522,-2.663818 1.66667,-2.333334 0.91667,0.305556 -0.19413,1.541637 -0.19413,2.519415 0,0.977777 2.0412,1.841696 1.12453,2.147252 -0.99145,0.330484 -2.59707,-0.614815 -2.59707,-2.333333 z"
     id="path4588"
     inkscape:connector-curvature="0"
     sodipodi:nodetypes="csssssssssscccsscsccccsccccsccssssssscsccccccsccccscscsssssssscscssssccccssssscccssccssscssssssscscssssccssscccccccscccscsccssscscccscscscsssssssss" />
  <rect
     style="fill:#333333;stroke-width:0.86602539"
     id="rect4590"
     width="137.57755"
     height="1.5997388"
     x="51.841408"
     y="89.702873" />
</svg>
