<?xml version="1.0" encoding="UTF-8" standalone="no"?>
<!-- Created with Inkscape (http://www.inkscape.org/) -->

<svg
   xmlns:dc="http://purl.org/dc/elements/1.1/"
   xmlns:cc="http://creativecommons.org/ns#"
   xmlns:rdf="http://www.w3.org/1999/02/22-rdf-syntax-ns#"
   xmlns:svg="http://www.w3.org/2000/svg"
   xmlns="http://www.w3.org/2000/svg"
   xmlns:sodipodi="http://sodipodi.sourceforge.net/DTD/sodipodi-0.dtd"
   xmlns:inkscape="http://www.inkscape.org/namespaces/inkscape"
   version="1.1"
   id="svg3749"
   width="200"
   height="100"
   viewBox="0 0 200 100"
   sodipodi:docname="main-logo.svg"
   inkscape:version="0.92.3 (2405546, 2018-03-11)">
  <metadata
     id="metadata3755">
    <rdf:RDF>
      <cc:Work
         rdf:about="">
        <dc:format>image/svg+xml</dc:format>
        <dc:type
           rdf:resource="http://purl.org/dc/dcmitype/StillImage" />
        <dc:title></dc:title>
      </cc:Work>
    </rdf:RDF>
  </metadata>
  <defs
     id="defs3753" />
  <sodipodi:namedview
     pagecolor="#ffffff"
     bordercolor="#666666"
     borderopacity="1"
     objecttolerance="10"
     gridtolerance="10"
     guidetolerance="10"
     inkscape:pageopacity="0"
     inkscape:pageshadow="2"
     inkscape:window-width="1366"
     inkscape:window-height="705"
     id="namedview3751"
     showgrid="false"
     inkscape:zoom="3.8"
     inkscape:cx="77.874639"
     inkscape:cy="53.178248"
     inkscape:window-x="-8"
     inkscape:window-y="-8"
     inkscape:window-maximized="1"
     inkscape:current-layer="svg3749" />
  <path
     style="fill:#333333;stroke-width:1.33333337"
     d="m 58.649122,93.667573 c 19.983324,-0.20741 113.999118,-0.20741 133.982458,0 13.95043,0.144794 -4.25341,0.652552 -31.31424,0.948311 -11.70255,0.127902 -26.55911,0.216168 -38.70331,0.218262 -12.61702,0.0022 -26.182637,-0.149033 -38.145005,-0.36251 C 59.034131,94.017733 45.057915,93.808638 58.649122,93.667573 Z M 114.13965,79.22227 c -2.48281,-2.664987 -2.7186,-4.635015 -2.7186,-22.713579 0,-15.977024 0.41537,-20.429433 2.15334,-23.081917 2.69209,-4.108644 7.49531,-4.267632 11.12805,-0.368341 2.48744,2.66995 2.71861,4.632668 2.71861,23.081918 0,18.449251 -0.23117,20.411968 -2.71861,23.081919 -1.49523,1.604944 -3.87186,2.918081 -5.28139,2.918081 -1.40953,0 -3.78616,-1.313137 -5.2814,-2.918081 z m 9.23449,-2.327597 c 0.75913,-1.418456 1.38024,-10.7579 1.38024,-20.754322 0,-9.996421 -0.62111,-19.335865 -1.38024,-20.754321 -1.55558,-2.906616 -5.28394,-3.381495 -7.68643,-0.979012 -2.23667,2.236677 -2.23667,41.229989 0,43.466667 2.40249,2.402482 6.13085,1.927604 7.68643,-0.979012 z m 55.30176,3.35316 c -2.30586,-1.686078 -2.58818,-3.58856 -2.58818,-17.440815 0,-14.007285 0.2643,-15.742195 2.66667,-17.504663 1.46667,-1.076002 3.75337,-1.674209 5.08156,-1.329349 3.04719,0.791189 3.87693,-1.380877 2.48277,-6.499321 -1.38776,-5.094918 -7.30368,-5.835296 -7.9904,-1 -0.61861,4.355772 -2.90726,3.682342 -2.90726,-0.855456 0,-3.034324 0.73408,-4.039699 3.44672,-4.720528 9.43358,-2.36768 11.21994,1.969137 11.21994,27.239134 0,17.47543 0.2813,20.048371 2.33334,21.342195 1.92214,1.211928 1.55934,1.380261 -2.05871,0.955228 -2.41561,-0.283776 -4.70103,-0.016 -5.07869,0.595068 -1.02658,1.661031 -3.69979,1.344873 -6.60776,-0.781493 z m 7.44482,-4.194282 c 2.06348,-5.427348 1.62975,-24.959918 -0.62157,-27.991693 -1.53739,-2.070357 -2.40436,-2.293052 -4.33333,-1.113084 -2.02842,1.2408 -2.47203,3.645288 -2.79294,15.138668 -0.38478,13.780695 0.56456,17.386243 4.57778,17.386243 1.02834,0 2.45488,-1.53906 3.17006,-3.420134 z M 51.754386,79.366886 c 2.12603,-1.238299 2.333334,-4.390427 2.333334,-35.479132 0,-30.931671 -0.218043,-34.2856072 -2.333334,-35.8913422 -2.001104,-1.519054 -0.767106,-1.77729 8.666667,-1.813656 l 11,-0.0424 V 17.473689 c 0,6.666666 -0.54902,11.333333 -1.333333,11.333333 -0.75817,0 -1.333334,-3.911111 -1.333334,-9.066667 0,-9.59559 -1.306505,-12.2666672 -6,-12.2666672 -5.235436,0 -6,2.412624 -6,18.9333342 0,15.62018 0.02251,15.733333 3.129582,15.733333 1.927906,0 3.685129,-1.151917 4.576425,-3 1.2285,-2.547265 1.446845,-1.893314 1.446845,4.333334 0,6.226648 -0.218345,6.880598 -1.446845,4.333333 -0.891296,-1.848083 -2.648519,-3 -4.576425,-3 -3.117404,0 -3.129582,0.06502 -3.129582,16.709632 0,16.082329 0.112627,16.754901 3,17.915485 2.395454,0.962855 1.656563,1.214714 -3.666666,1.249823 -5.152206,0.03399 -6.136606,-0.264763 -4.333334,-1.315072 z m 33.333334,0 c 2.126029,-1.238299 2.333333,-4.390427 2.333333,-35.479132 0,-30.904017 -0.219935,-34.2938852 -2.333333,-35.9639342 -2.111123,-1.668248 -1.9524,-1.809225 1.666666,-1.480323 l 4,0.363521 0.237462,35.3333332 0.237461,35.333334 3.095872,1.64701 c 2.784671,1.481452 2.358716,1.644912 -4.237461,1.626123 -5.625258,-0.01602 -6.789855,-0.337437 -5,-1.379932 z m 59.99999,0 c 2.07214,-1.206905 2.33334,-3.806969 2.33334,-23.226535 0,-18.685249 -0.31135,-22.041734 -2.13954,-23.064833 -1.57245,-0.879989 -0.37881,-1.405871 4.50347,-1.984105 9.95347,-1.17884 12.30273,-0.185024 12.30273,5.204446 0,5.395338 -2.31068,6.065575 -2.91144,0.844492 -0.3348,-2.909716 -1.11002,-3.666666 -3.75522,-3.666666 h -3.33334 l -0.66666,21.802206 c -0.36667,11.991214 -0.36667,22.271804 0,22.845758 0.36666,0.573952 1.86666,1.343358 3.33333,1.70979 1.46667,0.366434 -0.63333,0.717598 -4.66667,0.780366 -5.58112,0.08685 -6.77581,-0.210603 -5,-1.244919 z M 16.324815,59.416895 C 14.94609,55.764237 14.81157,55.720381 11.012459,57.684977 6.8557499,59.834494 5.2103019,59.094374 4.6141399,54.807018 3.9044769,49.703414 6.0426179,46.143017 9.8442359,46.097947 12.92008,46.061477 13.12665,45.828046 11.319097,44.431281 10.163021,43.537935 8.8816949,41.504827 8.4717059,39.913259 c -0.575243,-2.233076 -0.04036,-3.07072 2.3427581,-3.668845 3.797707,-0.953164 9.932605,1.220835 9.96034,3.529603 0.01414,1.176993 0.417881,1.084636 1.312916,-0.300332 1.148888,-1.777778 1.304158,-1.777778 1.397432,0 0.06085,1.159952 0.611418,0.739926 1.310784,-1 1.433301,-3.565863 6.717396,-4.050579 9.863212,-0.904762 2.467562,2.467562 2.653829,4.068822 0.619554,5.326072 -0.811625,0.501612 -0.947766,1.287023 -0.302536,1.745356 2.605228,1.850596 5.698739,8.155691 4.953864,10.096806 -1.368056,3.565096 -7.64565,2.458164 -11.926189,-2.102952 -3.348741,-3.568242 -3.477479,-3.945663 -0.888565,-2.605007 4.669809,2.418237 8.977587,-1.432432 5.557821,-5.62754 -3.554642,-4.36056 -9.735587,-4.706218 -9.883623,0.249766 -0.06139,2.05518 -0.314334,4.155594 -0.314334,4.155594 -1.892316,-5.146445 -8.023737,-9.155577 -6.458118,-4.222747 0.561382,1.768756 -0.242583,2.929967 -2.910149,4.203286 l -3.6858201,1.759366 3.3333331,0.92819 c 1.833334,0.510505 3.903334,0.419026 4.6,-0.203286 2.096871,-1.873072 3.189852,-1.282542 2.501083,1.351316 -0.861857,3.295747 3.082916,6.125365 4.753604,3.140013 1.096927,-1.960098 1.4735,-3.092909 2.932428,0.10909 2.031888,4.459509 0.765163,6.061825 -5.355625,6.774485 -3.86318,0.449802 -4.63209,0.02608 -5.861061,-3.229836 z M 22.08772,34.140351 c 0,-1.718518 0.675213,-2.663817 1.666666,-2.333333 0.916667,0.305556 1.666667,1.355556 1.666667,2.333333 0,0.977778 -0.75,2.027778 -1.666667,2.333334 -0.991453,0.330484 -1.666666,-0.614815 -1.666666,-2.333334 z"
     id="path3763"
     inkscape:connector-curvature="0"
     sodipodi:nodetypes="sssssscscsscsccscccccsscccssscsccccsssccssscsssssssssssscccsssscccssscscsscscsccscsssccsssscsssssssssssscssssssssssss" />
</svg>
