<?xml version="1.0" encoding="UTF-8" standalone="no"?>
<?xml-stylesheet type="text/css" href="base_style.css"?>
<!-- Created with Inkscape (http://www.inkscape.org/) -->

<svg
   xmlns:dc="http://purl.org/dc/elements/1.1/"
   xmlns:cc="http://creativecommons.org/ns#"
   xmlns:rdf="http://www.w3.org/1999/02/22-rdf-syntax-ns#"
   xmlns:svg="http://www.w3.org/2000/svg"
   xmlns="http://www.w3.org/2000/svg"
   xmlns:sodipodi="http://sodipodi.sourceforge.net/DTD/sodipodi-0.dtd"
   xmlns:inkscape="http://www.inkscape.org/namespaces/inkscape"
   version="1.1"
   id="svg10"
   width="35"
   height="35"
   viewBox="0 0 48 48"
   sodipodi:docname="shopping-cart.svg"
   inkscape:version="0.92.3 (2405546, 2018-03-11)">
  <metadata
     id="metadata16">
    <rdf:RDF>
      <cc:Work
         rdf:about="">
        <dc:format>image/svg+xml</dc:format>
        <dc:type
           rdf:resource="http://purl.org/dc/dcmitype/StillImage" />
        <dc:title></dc:title>
      </cc:Work>
    </rdf:RDF>
  </metadata>
  <defs
     id="defs14" />
  <sodipodi:namedview
     pagecolor="#ffffff"
     bordercolor="blue"
     borderopacity="1"
     objecttolerance="10"
     gridtolerance="10"
     guidetolerance="10"
     inkscape:pageopacity="0"
     inkscape:pageshadow="2"
     inkscape:window-width="1366"
     inkscape:window-height="705"
     id="namedview12"
     showgrid="false"
     inkscape:zoom="8"
     inkscape:cx="-3.4031904"
     inkscape:cy="18.268079"
     inkscape:window-x="-8"
     inkscape:window-y="-8"
     inkscape:window-maximized="1"
     inkscape:current-layer="svg10" />
  <path
     d="m 25.969185,47.493416 c -1.080431,0 -2.519864,-0.669269 -3.19874,-1.487265 -0.678876,-0.817996 -0.516291,-2.191574 -0.185962,-3.052396 1.136298,-1.219032 -0.459611,-2.554053 -1.208161,-3.762735 -0.748548,-1.208682 -2.790555,-8.047604 -4.537791,-15.197604 -1.747237,-7.15 -3.622058,-14.6874999 -4.166269,-16.7499999 -0.887769,-3.3645484 -1.32471,-3.75 -4.2509306,-3.75 -1.7938,0 -1.5902612,0.076497 -2.8384662,0.0899 0,0 -1.9545207,0.2233446 -3.7567523,0.3017098 C 0.96132222,3.9226288 1.1051451,2.4620529 1.4746821,1.8641302 1.8442181,1.2662074 4.0909784,1.4934158 6.7958404,1.4934158 c 4.0040526,0 5.1872046,0.4181075 6.3670066,2.25 0.796992,1.2375 1.757446,3.9375 2.134343,6 l 0.685268,3.7500002 H 30.81215 c 8.156331,0 15.084651,0.412533 15.396268,0.916739 0.311617,0.504206 -0.870358,4.666706 -2.626609,9.25 -1.756252,4.583294 -3.614754,8.895761 -4.130004,9.583261 -0.619033,0.825978 -3.778633,1.25 -9.314374,1.25 -4.607655,0 -8.377555,0.413196 -8.377555,0.918213 0,0.505016 0.273145,1.630016 0.606989,2.5 0.490395,1.277948 1.684682,1.134026 8.854082,1.134026 3.708128,0 5.76985,-0.22922 7.078517,-0.02342 1.284406,0.20198 2.031923,1.507319 1.205549,1.607818 0,0 1.362945,1.185767 1.462476,1.582331 0.426869,1.700782 0.532537,2.969458 -0.466456,3.96845 -0.951065,0.951065 -2.306862,1.267813 -3.62965,0.847977 -1.386348,-0.44001 -2.137736,-2.5495 -2.137736,-4.146676 0,-0.635686 0.691348,-0.999393 0.55452,-1.280223 -0.264768,-0.543415 -1.65576,-0.108492 -2.809053,-0.108492 -1.615876,0 -4.043708,0.247693 -3.413136,3 0.460912,2.011778 -1.83241,3 -3.096793,3 z m -0.145986,-1.683385 c 0.485081,0 0.931022,-0.425887 1.300559,-1.023809 0.369536,-0.597923 0.361063,-1.967861 -0.251014,-2.579938 -0.817157,-0.817157 -1.408579,-0.817157 -2.225736,0 -0.612077,0.612077 -0.810519,1.602077 -0.440983,2.2 0.369537,0.597922 1.132093,1.403747 1.617174,1.403747 z M 38.3332,45.493416 c 0.931239,0 1.441373,-0.68037 1.25,-1.667134 -0.177828,-0.916923 -0.885824,-1.854423 -1.573324,-2.083333 -0.733184,-0.244121 -1.25,0.445161 -1.25,1.667134 0,1.228337 0.645689,2.083333 1.573324,2.083333 z m -8.701375,-13.212976 8.610203,-0.287024 2.682667,-6.5 c 1.475467,-3.575 2.716983,-7.2875 2.758924,-8.25 0.06904,-1.584423 -1.207426,-1.75 -13.491131,-1.75 -12.454229,0 -13.524405,0.143582 -13.043505,1.75 0.288136,0.9625 1.277353,4.804161 2.198262,8.537024 l 1.674378,6.787024 z"
     id="path26"
     inkscape:connector-curvature="0"
     sodipodi:nodetypes="ssccssssssssscsssssssssssssssssssssscsscsssccsssssccc" />
</svg>
